<svg viewBox="0 0 500 500" xmlns="http://www.w3.org/2000/svg">
  <path class="cls-1" d="M 91.79 251.677 C 91.79 226.828 91.79 201.98 91.79 177.129 C 91.79 172.856 92.498 168.698 94.163 164.738 C 96.653 158.797 100.745 154.251 106.229 150.974 C 111.47 147.842 116.799 144.863 122.093 141.812 C 130.032 137.237 137.972 132.664 145.909 128.088 C 156.328 122.086 166.744 116.076 177.158 110.067 C 186.973 104.41 196.791 98.756 206.609 93.103 C 214.544 88.524 222.476 83.934 230.397 79.332 C 232.698 78 234.996 76.629 237.329 75.376 C 247.037 70.188 256.806 70.147 266.398 75.567 C 280.449 83.514 294.438 91.621 308.436 99.683 C 323.801 108.541 339.157 117.408 354.504 126.282 C 363.545 131.505 372.584 136.738 381.617 141.978 C 386.726 144.942 391.877 147.856 396.964 150.864 C 405.316 155.804 410.041 163.158 411.41 172.735 C 411.683 174.686 411.816 176.656 411.809 178.627 C 411.801 227.438 411.801 276.248 411.809 325.061 C 411.809 330.15 410.891 335.024 408.702 339.666 C 406.285 344.894 402.313 349.249 397.33 352.135 C 389.854 356.523 382.306 360.784 374.799 365.122 C 366.778 369.754 358.781 374.423 350.763 379.052 C 343 383.533 335.213 387.973 327.448 392.444 C 316.435 398.785 305.424 405.131 294.415 411.482 C 285.192 416.804 275.993 422.169 266.765 427.455 C 264.03 429.027 261.186 430.361 258.035 430.982 C 252.08 432.153 246.283 431.863 240.664 429.448 C 236.845 427.807 233.349 425.575 229.76 423.522 C 219.329 417.55 208.95 411.492 198.542 405.482 C 187.536 399.126 176.525 392.78 165.508 386.444 C 155.091 380.443 144.675 374.443 134.259 368.443 C 125.044 363.128 115.8 357.858 106.629 352.462 C 99.219 348.104 94.39 341.734 92.56 333.268 C 92.032 330.762 91.775 328.204 91.792 325.64 C 91.807 300.983 91.807 276.327 91.79 251.677 Z" style="fill: rgb(246, 178, 26);"/>
  <path class="cls-1" d="M 251.768 458.024 C 254.905 456.236 257.983 454.477 261.058 452.706 C 273.262 445.668 285.464 438.626 297.666 431.583 C 313.283 422.574 328.901 413.562 344.518 404.551 C 355.185 398.398 365.857 392.246 376.528 386.097 C 386.086 380.583 395.64 375.06 405.188 369.531 C 411.075 366.125 416.967 362.734 422.866 359.355 C 423.548 358.966 424.24 358.59 424.949 358.247 C 427.785 356.91 431.522 357.858 433.524 360.866 C 435.439 363.754 434.918 367.763 432.261 369.988 C 431.217 370.866 429.963 371.521 428.784 372.211 C 421.7 376.296 414.598 380.346 407.517 384.434 C 393.775 392.361 380.043 400.298 366.314 408.242 C 355.225 414.651 344.138 421.056 333.047 427.458 C 323.917 432.738 314.792 438.017 305.67 443.298 C 298.5 447.432 291.303 451.523 284.134 455.654 C 274.912 460.962 265.696 466.287 256.49 471.623 C 255.379 472.267 254.28 472.934 252.978 473.097 C 251.109 473.364 249.201 472.984 247.578 472.018 C 244.094 469.976 240.564 468.003 237.068 465.982 C 232.981 463.619 228.892 461.233 224.805 458.865 C 216.961 454.325 209.115 449.79 201.266 445.257 C 192.903 440.436 184.535 435.624 176.162 430.816 C 160.878 422.012 145.599 413.201 130.325 404.385 C 119.826 398.327 109.328 392.268 98.834 386.206 C 90.132 381.18 81.433 376.149 72.737 371.112 C 69.494 369.23 68.183 366.258 69.041 362.894 C 70.063 358.9 74.591 356.571 78.367 358.216 C 80.076 358.959 81.689 359.946 83.312 360.877 C 91.858 365.779 100.398 370.693 108.931 375.614 C 119.26 381.578 129.584 387.537 139.904 393.5 C 150.226 399.46 160.554 405.416 170.888 411.365 C 181.976 417.78 193.037 424.245 204.124 430.655 C 213.422 436.022 222.75 441.351 232.058 446.713 C 237.861 450.057 243.646 453.44 249.446 456.794 C 250.189 457.228 250.992 457.614 251.768 458.024 Z" style="fill: rgb(246, 178, 26);"/>
  <path class="cls-1" d="M 444.624 245.953 L 444.624 344.758 C 444.624 345.841 444.666 346.929 444.6 348.011 C 444.382 351.568 441.334 354.365 437.7 354.398 C 434.067 354.431 430.991 351.588 430.804 348.033 C 430.742 346.95 430.785 345.865 430.785 344.777 C 430.785 280.689 430.785 216.599 430.785 152.504 C 430.785 147.631 431.382 148.871 427.465 146.589 C 414.009 138.777 400.538 130.979 387.054 123.199 C 374.258 115.811 361.452 108.439 348.633 101.082 C 340.868 96.602 333.13 92.078 325.362 87.602 C 317.083 82.83 308.781 78.106 300.508 73.331 C 287.345 65.736 274.201 58.138 261.076 50.532 C 260.052 49.939 258.99 49.407 258.01 48.767 C 254.32 46.384 253.377 40.927 257.082 37.567 C 259.346 35.522 262.305 34.915 265.533 36.764 C 270.577 39.659 275.615 42.556 280.65 45.449 C 285.088 48.005 289.507 50.607 293.936 53.173 C 302.207 57.96 310.484 62.739 318.763 67.511 C 326.953 72.234 335.147 76.948 343.346 81.66 C 350.771 85.941 358.176 90.255 365.604 94.535 C 373.712 99.206 381.842 103.844 389.948 108.52 C 399.079 113.788 408.203 119.068 417.318 124.362 C 424.472 128.505 431.636 132.642 438.815 136.776 C 439.664 137.268 440.544 137.725 441.369 138.266 C 443.487 139.664 444.69 141.587 444.635 144.193 C 444.619 145.181 444.635 146.167 444.635 147.154 L 444.624 245.953 Z" style="fill: rgb(246, 178, 26);"/>
  <path class="cls-1" d="M 58.832 245.599 L 58.832 147.103 C 58.832 146.117 58.87 145.133 58.832 144.147 C 58.731 141.369 60.155 139.476 62.375 138.088 C 64.048 137.046 65.772 136.086 67.488 135.103 C 76.707 129.79 85.923 124.479 95.135 119.167 C 105.634 113.123 116.135 107.079 126.636 101.04 C 136.789 95.186 146.937 89.318 157.08 83.439 C 168 77.135 178.926 70.847 189.861 64.576 C 197.879 59.954 205.876 55.296 213.89 50.656 C 221.649 46.169 229.414 41.695 237.189 37.235 C 237.954 36.795 238.77 36.448 239.564 36.065 C 242.808 34.501 248.276 37.263 248.598 41.955 C 248.826 45.245 247.528 47.625 244.633 49.266 C 237.094 53.536 229.588 57.87 222.086 62.196 C 215.009 66.282 207.951 70.408 200.882 74.497 C 191.582 79.863 182.281 85.22 172.975 90.569 C 162.989 96.316 153.004 102.065 143.017 107.815 C 130.821 114.858 118.631 121.912 106.449 128.978 C 97.92 133.908 89.384 138.821 80.837 143.721 C 78.619 144.998 76.436 146.342 74.195 147.587 C 73.104 148.192 72.662 149.015 72.771 150.233 C 72.837 151.017 72.771 151.809 72.771 152.6 L 72.771 344.558 C 72.771 345.644 72.807 346.731 72.741 347.813 C 72.548 351.066 70.443 353.434 67.145 354.175 C 64.235 354.827 61.091 353.386 59.6 350.756 C 59.121 349.891 58.866 348.919 58.859 347.929 C 58.831 346.945 58.842 345.959 58.842 344.974 L 58.832 245.599 Z" style="fill: rgb(246, 178, 26);"/>
  <path class="cls-4" d="M 251.722 358.021 L 190.18 358.021 C 186.603 358.021 183.115 357.465 179.803 356.045 C 172.935 353.099 168.563 347.953 166.391 340.855 C 165.625 338.371 165.57 335.815 165.515 333.249 C 165.459 331.566 165.942 329.912 166.893 328.524 C 169.401 324.751 171.844 320.935 174.301 317.123 C 181.594 305.774 188.885 294.424 196.173 283.068 C 202.619 273.053 209.08 263.043 215.559 253.039 C 217.428 250.143 219.235 247.21 221.123 244.326 C 221.743 243.382 222.132 242.431 222.059 241.291 C 222.016 240.604 222.059 239.911 222.059 239.22 L 222.059 155.826 C 222.021 155.237 222.021 154.645 222.059 154.053 C 222.239 152.604 221.654 151.777 220.377 151.005 C 216.516 148.667 214.424 145.227 214.016 140.628 C 213.506 134.596 218.193 127.525 226.315 127.006 C 226.806 126.975 227.298 126.988 227.791 126.988 C 243.77 126.988 259.747 126.988 275.726 126.988 C 279.557 126.988 282.862 128.131 285.636 130.819 C 288.957 134.061 289.917 137.996 289.192 142.452 C 288.616 145.972 286.605 148.562 283.787 150.603 C 283.403 150.915 282.985 151.179 282.539 151.387 C 281.417 151.828 281.166 152.681 281.241 153.754 C 281.275 154.244 281.241 154.742 281.241 155.234 C 281.241 183.428 281.232 211.625 281.213 239.821 C 281.178 241.682 281.712 243.507 282.746 245.053 C 292.23 259.683 301.609 274.376 311.036 289.042 C 317.372 298.902 323.722 308.751 330.086 318.587 C 332.01 321.571 333.863 324.602 335.902 327.5 C 337.393 329.623 337.962 331.843 337.881 334.426 C 337.751 338.541 336.992 342.448 334.905 346.033 C 331.096 352.568 325.452 356.438 317.972 357.642 C 316.217 357.914 314.445 358.045 312.67 358.033 C 292.355 358.011 272.04 358.009 251.722 358.021 Z" style="fill: rgb(251, 251, 251);"/>
  <path class="cls-5" d="M 303.009 223.497 C 303.009 222.714 303.009 221.928 303.009 221.141 C 303.037 219.963 303.356 218.808 303.938 217.784 C 304.864 216.035 306.329 215.289 308.28 215.371 C 310.145 215.449 311.421 216.334 312.173 218.019 C 312.31 218.278 312.424 218.549 312.517 218.828 C 313.345 222.022 313.455 225.261 312.456 228.396 C 311.456 231.531 309.584 232.077 306.428 231.534 C 305.6 231.39 305.03 230.825 304.539 230.219 C 303.602 229.064 303.064 227.639 303.006 226.153 C 302.962 225.275 303.006 224.388 303.006 223.506 L 303.009 223.497 Z" style="fill: rgb(251, 238, 217);"/>
  <path class="cls-6" d="M 303.013 250.215 C 303.013 249.331 302.998 248.449 303.013 247.565 C 303.059 246.483 303.36 245.427 303.891 244.482 C 304.805 242.759 306.189 241.926 308.192 241.983 C 310.196 242.037 311.491 243.04 312.279 244.794 C 312.443 245.15 312.569 245.521 312.654 245.904 C 313.297 248.781 313.277 251.763 312.6 254.631 C 312.501 255.009 312.362 255.376 312.183 255.727 C 311.401 257.362 310.189 258.282 308.277 258.324 C 306.31 258.371 304.855 257.677 303.936 255.926 C 303.358 254.895 303.038 253.738 303.009 252.558 C 303.009 251.772 303.009 250.99 303.009 250.203 L 303.013 250.215 Z" style="fill: rgb(251, 239, 218);"/>
  <path class="cls-7" d="M 326.165 276.71 C 326.165 275.925 326.152 275.14 326.165 274.352 C 326.183 273.268 326.435 272.199 326.903 271.223 C 327.803 269.334 329.268 268.48 331.4 268.599 C 333.422 268.71 334.721 269.698 335.418 271.509 C 335.761 272.323 335.977 273.185 336.058 274.063 C 336.157 275.824 336.126 277.597 336.071 279.362 C 336.016 280.047 335.877 280.722 335.653 281.374 C 334.588 284.921 332.439 285.236 329.505 284.773 C 328.775 284.659 328.28 284.181 327.808 283.68 C 326.747 282.549 326.321 281.147 326.199 279.653 C 326.117 278.676 326.183 277.691 326.183 276.708 L 326.165 276.71 Z" style="fill: rgb(251, 238, 215);"/>
  <path class="cls-8" d="M 326.169 223.49 C 326.169 221.925 326.051 220.348 326.562 218.817 C 327.398 216.312 329.117 215.167 331.697 215.378 C 333.097 215.463 334.36 216.251 335.052 217.471 C 335.216 217.718 335.345 217.984 335.435 218.262 C 336.477 221.842 336.593 225.417 335.367 228.966 C 334.778 230.667 333.498 231.627 331.576 231.714 C 329.505 231.808 327.931 231.178 326.976 229.255 C 326.495 228.285 326.22 227.226 326.169 226.143 C 326.137 225.26 326.169 224.375 326.169 223.49 Z" style="fill: rgb(251, 238, 216);"/>
  <path class="cls-8" d="M 336.185 170.39 C 336.159 172.065 336.159 173.726 335.549 175.33 C 334.733 177.472 333.581 178.365 331.411 178.439 C 328.961 178.525 327.711 177.762 326.798 175.607 C 326.675 175.338 326.578 175.06 326.515 174.771 C 325.958 171.753 325.865 168.71 326.552 165.724 C 327.081 163.442 328.598 162.268 330.66 162.119 C 332.961 161.953 334.666 163.018 335.494 165.171 C 335.726 165.714 335.886 166.286 335.969 166.868 C 336.095 168.037 336.12 169.216 336.185 170.39 Z" style="fill: rgb(251, 238, 216);"/>
  <path class="cls-9" d="M 359.237 170.008 C 359.182 171.736 359.268 173.22 358.854 174.666 C 357.752 178.534 355.278 178.805 352.515 178.241 C 351.154 177.967 350.331 176.859 349.929 175.611 C 348.82 172.212 348.805 168.546 349.887 165.136 C 350.417 163.416 351.676 162.326 353.557 162.14 C 355.493 161.933 357.041 162.576 358.126 164.234 C 358.704 165.158 359.041 166.212 359.105 167.3 C 359.186 168.289 359.203 169.276 359.237 170.008 Z" style="fill: rgb(251, 240, 221);"/>
  <path class="cls-10" d="M 359.238 250.092 C 359.213 251.756 359.258 253.428 358.729 255.04 C 358.043 257.084 356.685 258.189 354.687 258.31 C 352.023 258.471 350.393 257.374 349.702 254.755 C 348.884 251.705 348.894 248.494 349.73 245.451 C 350.365 243.125 351.937 241.978 354.223 241.985 C 356.448 241.985 358.078 243.231 358.777 245.431 C 359.248 246.953 359.203 248.528 359.238 250.092 Z" style="fill: rgb(251, 237, 214);"/>
  <path class="cls-11" d="M 382.202 276.817 C 382.202 278.288 382.255 279.759 381.888 281.212 C 381.258 283.711 379.785 284.929 377.32 284.933 C 374.804 284.933 373.33 283.843 372.701 281.282 C 371.96 278.313 371.96 275.208 372.701 272.239 C 373.334 269.697 374.835 268.59 377.346 268.613 C 379.723 268.632 381.248 269.928 381.885 272.417 C 382.275 273.871 382.185 275.343 382.202 276.817 Z" style="fill: rgb(251, 236, 210);"/>
  <path class="cls-12" d="M 382.189 196.672 C 382.189 198.511 382.217 199.878 381.901 201.236 C 380.964 205.278 378.12 205.492 375.411 204.812 C 374.106 204.49 373.266 203.376 372.903 202.109 C 371.881 198.7 371.889 195.067 372.927 191.662 C 373.536 189.691 375.361 188.642 377.527 188.726 C 379.458 188.748 381.147 190.023 381.697 191.873 C 382.275 193.591 382.206 195.368 382.189 196.672 Z" style="fill: rgb(251, 238, 214);"/>
  <path class="cls-13" d="M 382.197 223.337 C 382.182 224.964 382.251 226.435 381.899 227.887 C 380.937 231.866 378.186 232.091 375.375 231.424 C 374.847 231.299 374.355 230.843 373.937 230.447 C 373.306 229.821 372.88 229.02 372.708 228.148 C 372.002 225.178 371.992 222.081 372.688 219.108 C 373.293 216.572 374.836 215.375 377.269 215.364 C 379.645 215.364 381.209 216.642 381.868 219.109 C 382.255 220.552 382.169 222.023 382.197 223.337 Z" style="fill: rgb(251, 237, 213);"/>
  <path class="cls-8" d="M 382.182 170.265 C 382.182 171.868 382.227 173.33 381.863 174.787 C 380.878 178.714 377.865 178.93 375.256 178.143 C 373.979 177.757 373.185 176.61 372.846 175.331 C 371.957 171.949 371.896 168.529 372.892 165.164 C 373.489 163.154 375.244 162.072 377.413 162.098 C 379.532 162.136 381.172 163.356 381.74 165.42 C 382.136 167.003 382.283 168.635 382.182 170.265 Z" style="fill: rgb(251, 238, 216);"/>
  <path class="cls-14" d="M 355.729 276.801 C 355.729 278.859 355.729 280.919 355.729 282.981 C 355.729 283.462 355.785 283.98 355.441 284.383 C 355.32 284.53 355.152 284.628 354.968 284.668 C 354.68 284.731 354.383 284.597 354.24 284.34 C 353.92 283.797 354.01 283.196 354.006 282.618 C 354.006 279.871 354.006 277.123 354.006 274.375 C 354.006 273.592 354.006 272.807 353.946 272.023 C 353.908 271.434 353.542 271.153 352.962 271.281 C 352.196 271.447 351.46 271.684 350.698 271.852 C 350.401 271.914 350.109 271.729 350.037 271.434 C 349.933 271.14 350.061 270.814 350.338 270.669 C 350.751 270.403 351.192 270.182 351.652 270.014 C 355.678 268.655 355.808 267.658 355.74 272.662 C 355.725 274.033 355.74 275.406 355.74 276.781 L 355.729 276.801 Z" style="fill: rgb(251, 229, 191);"/>
  <path class="cls-14" d="M 355.735 223.591 C 355.735 225.358 355.735 227.125 355.735 228.89 C 355.735 229.478 355.706 230.064 355.647 230.649 C 355.633 231.057 355.317 231.386 354.913 231.416 C 354.5 231.472 354.126 231.167 354.102 230.75 C 354.022 229.876 354.006 228.991 354.002 228.109 C 353.982 225.068 354.002 222.026 353.958 218.987 C 353.958 218.065 353.553 217.839 352.609 218.098 C 352.422 218.151 352.251 218.262 352.062 218.316 C 350.663 218.705 350.019 218.651 350.019 218.129 C 350.003 217.199 350.857 217.13 351.427 216.881 C 352.514 216.427 353.622 216.029 354.747 215.691 C 355.148 215.562 355.569 215.826 355.624 216.241 C 355.709 216.724 355.749 217.212 355.737 217.703 C 355.75 219.665 355.737 221.625 355.737 223.579 L 355.735 223.591 Z" style="fill: rgb(251, 229, 191);"/>
  <path class="cls-15" d="M 332.614 250.094 C 332.614 252.254 332.626 254.409 332.614 256.569 C 332.595 256.954 332.515 257.334 332.372 257.693 C 332.321 257.829 332.095 257.947 331.93 257.994 C 331.646 258.082 331.338 257.97 331.178 257.721 C 330.816 257.196 330.922 256.589 330.922 256.008 C 330.909 252.687 330.922 249.34 330.902 246.005 C 330.902 244.622 330.609 244.433 329.349 244.767 C 328.794 244.946 328.228 245.092 327.654 245.208 C 327.377 245.223 327.11 245.096 326.944 244.877 C 326.882 244.603 326.972 244.319 327.176 244.125 C 327.865 243.753 328.58 243.433 329.314 243.164 C 332.688 241.885 332.657 241.682 332.636 245.388 C 332.636 246.957 332.636 248.525 332.636 250.094 L 332.614 250.094 Z" style="fill: rgb(251, 233, 202);"/>
  <path class="cls-16" d="M 353.659 191.469 C 352.562 191.108 351.667 192.174 350.576 191.978 C 350.276 191.926 350.002 191.826 350.017 191.469 C 350.041 191.283 350.103 191.103 350.197 190.943 C 350.249 190.859 350.327 190.798 350.42 190.767 C 351.879 190.206 353.334 189.629 354.808 189.115 C 355.22 188.973 355.573 189.267 355.633 189.703 C 355.699 190.188 355.729 190.679 355.719 191.167 C 355.719 194.987 355.719 198.808 355.719 202.628 C 355.719 203.21 355.649 203.79 355.504 204.352 C 355.372 204.603 355.126 204.767 354.844 204.797 C 354.567 204.763 354.325 204.591 354.202 204.344 C 354.068 203.677 354.002 202.998 354 202.32 C 353.981 199.281 354 196.245 353.985 193.207 C 353.989 192.617 354.044 192.016 353.659 191.469 Z" style="fill: rgb(251, 229, 192);"/>
  <path class="cls-17" d="M 332.626 197.06 C 332.626 198.828 332.626 200.591 332.626 202.358 C 332.629 202.944 332.598 203.532 332.531 204.115 C 332.494 204.525 332.126 204.828 331.716 204.777 C 331.31 204.75 330.986 204.418 330.972 204.011 C 330.917 203.327 330.894 202.641 330.892 201.966 C 330.892 199.317 330.892 196.667 330.892 194.018 C 330.901 193.335 330.874 192.653 330.811 191.974 C 330.784 191.556 330.372 191.272 329.972 191.397 C 329.306 191.549 328.661 191.797 328.002 191.982 C 327.623 192.115 327.203 192.023 326.913 191.748 C 326.704 191.544 327.102 190.861 327.604 190.659 C 328.881 190.148 330.159 189.636 331.435 189.172 C 332.126 188.918 332.574 189.25 332.583 190.019 C 332.611 192.376 332.583 194.728 332.583 197.081 L 332.626 197.06 Z" style="fill: rgb(251, 232, 200);"/>
  <path class="cls-18" d="M 309.338 162.158 C 309.427 163.178 309.517 163.763 309.517 164.344 C 309.532 168.276 309.532 172.209 309.517 176.137 C 309.497 176.719 309.424 177.297 309.296 177.867 C 309.272 177.978 308.998 178.092 308.83 178.101 C 308.639 178.12 308.448 178.061 308.3 177.937 C 307.899 177.449 307.909 176.843 307.909 176.255 C 307.909 173.504 307.909 170.75 307.909 167.999 C 307.909 167.214 307.909 166.427 307.86 165.643 C 307.812 164.863 307.403 164.624 306.688 164.812 C 306.214 164.942 305.761 165.143 305.289 165.272 C 304.816 165.401 304.317 165.451 303.908 165.07 C 303.653 164.843 304.192 164.164 304.891 163.882 C 306.23 163.341 307.594 162.829 309.338 162.158 Z" style="fill: rgb(251, 232, 199);"/>
  <path class="cls-18" d="M 309.462 196.998 C 309.462 199.355 309.462 201.715 309.462 204.075 C 309.509 204.494 309.123 204.836 308.711 204.735 C 308.436 204.662 308.211 204.462 308.11 204.196 C 307.985 203.326 307.919 202.448 307.91 201.568 C 307.879 198.52 307.91 195.47 307.868 192.425 C 307.868 191.482 307.415 191.167 306.549 191.44 C 305.803 191.674 305.106 192.109 304.284 191.93 C 304.106 191.877 303.962 191.748 303.892 191.576 C 303.844 191.392 303.885 191.196 304.005 191.046 C 305.472 190.026 307.172 189.548 308.858 189.095 C 309.128 189.02 309.401 189.316 309.428 189.629 C 309.481 190.314 309.507 191.002 309.509 191.688 C 309.509 193.459 309.509 195.227 309.509 196.998 L 309.462 196.998 Z" style="fill: rgb(251, 232, 199);"/>
  <path class="cls-19" d="M 378.375 242.334 C 378.885 242.98 378.773 243.579 378.775 244.151 C 378.787 248.068 378.787 251.985 378.775 255.905 C 378.784 256.293 378.768 256.686 378.729 257.075 C 378.681 257.448 378.628 257.86 378.128 257.931 C 377.586 258.001 377.472 257.589 377.441 257.21 C 377.379 256.433 377.368 255.648 377.366 254.867 C 377.366 252.226 377.366 249.582 377.366 246.947 C 377.366 246.362 377.366 245.773 377.3 245.189 C 377.231 244.675 376.712 244.351 376.223 244.514 C 375.564 244.701 374.929 244.966 374.269 245.143 C 373.988 245.212 373.695 245.212 373.414 245.143 C 373.283 245.112 373.185 244.888 373.107 244.732 C 373.076 244.639 373.083 244.541 373.126 244.452 C 373.158 244.358 373.22 244.276 373.301 244.22 C 374.878 243.317 376.591 242.68 378.375 242.334 Z" style="fill: rgb(251, 239, 220);"/>
  <path class="cls-1" d="M 251.784 348.682 L 190.228 348.682 C 188.75 348.682 187.293 348.659 185.83 348.284 C 180.013 346.797 176.429 343.174 175.099 337.326 C 174.989 336.845 174.931 336.353 174.82 335.873 C 174.508 334.547 174.82 333.399 175.561 332.246 C 179.004 326.963 182.383 321.638 185.781 316.336 C 192.167 306.393 198.554 296.45 204.941 286.51 C 209.902 278.804 214.862 271.102 219.831 263.402 C 223.137 258.275 226.407 253.123 229.757 248.022 C 230.793 246.458 231.329 244.618 231.29 242.742 C 231.252 211.68 231.244 180.62 231.263 149.558 C 231.286 148.965 231.27 148.375 231.221 147.783 C 230.966 145.669 229.616 144.143 227.532 143.743 C 226.654 143.573 225.782 143.466 225.024 142.951 C 223.803 142.12 223 141.048 223.17 139.5 C 223.317 138.117 224.829 136.628 226.335 136.352 C 226.92 136.269 227.511 136.234 228.103 136.252 C 243.888 136.252 259.673 136.252 275.457 136.252 C 276.653 136.252 277.779 136.355 278.809 137.127 C 280.597 138.47 280.505 141.911 278.488 142.957 C 277.694 143.347 276.847 143.611 275.974 143.74 C 273.674 144.145 272.341 145.628 272.123 147.93 C 272.041 148.809 272.064 149.702 272.064 150.589 C 272.064 180.96 272.064 211.333 272.064 241.705 C 272.064 242.396 272.064 243.087 272.064 243.776 C 272.061 244.963 272.407 246.125 273.059 247.116 C 277.478 253.878 281.871 260.659 286.237 267.458 C 288.211 270.521 290.138 273.615 292.113 276.684 C 297.05 284.386 302.003 292.087 306.965 299.779 L 326.638 330.353 C 326.782 330.61 326.944 330.858 327.12 331.095 C 328.908 333.209 328.841 335.658 328.178 338.092 C 326.532 344.122 321.55 348.412 314.785 348.685 C 313.999 348.714 313.207 348.685 312.417 348.685 L 251.784 348.682 Z" style="fill: rgb(246, 178, 26);"/>
  <path class="cls-20" d="M 311.359 223.672 C 311.374 225.34 311.514 227.029 310.704 228.591 C 310.11 229.728 309.272 230.41 307.893 230.355 C 307.092 230.344 306.338 229.968 305.85 229.334 C 305.14 228.501 304.737 227.452 304.706 226.357 C 304.667 224.489 304.682 222.618 304.695 220.738 C 304.722 219.748 305.047 218.791 305.63 217.991 C 306.833 216.198 309.507 216.314 310.552 218.206 C 311.062 219.054 311.339 220.025 311.359 221.015 C 311.367 221.898 311.359 222.784 311.359 223.672 Z" style="fill: rgb(246, 178, 27);"/>
  <path class="cls-20" d="M 304.712 249.936 C 304.712 249.049 304.698 248.163 304.712 247.279 C 304.746 246.386 305.023 245.52 305.514 244.772 C 306.654 242.848 309.452 242.878 310.55 244.829 C 310.567 244.857 310.583 244.888 310.598 244.919 C 311.05 245.687 311.304 246.555 311.342 247.448 C 311.37 249.22 311.367 250.994 311.342 252.766 C 311.315 253.763 311.023 254.732 310.493 255.577 C 309.427 257.458 306.736 257.51 305.597 255.673 C 305.03 254.857 304.715 253.893 304.688 252.901 C 304.688 251.915 304.688 250.932 304.688 249.946 L 304.712 249.936 Z" style="fill: rgb(246, 178, 27);"/>
  <path class="cls-20" d="M 334.355 276.817 C 334.355 277.891 334.4 278.967 334.355 280.04 C 334.283 281.023 333.896 281.959 333.251 282.704 C 332.373 283.805 329.964 284.082 328.872 282.544 C 328.171 281.593 327.788 280.443 327.78 279.26 C 327.78 277.597 327.78 275.939 327.78 274.267 C 327.777 273.383 327.995 272.51 328.415 271.731 C 329.009 270.615 329.836 269.925 331.209 269.983 C 332.58 270.042 333.359 270.774 333.922 271.895 C 334.327 272.708 334.415 273.583 334.432 274.465 C 334.459 275.246 334.432 276.03 334.432 276.817 L 334.355 276.817 Z" style="fill: rgb(246, 178, 27);"/>
  <path class="cls-20" d="M 334.38 223.712 C 334.424 225.178 334.573 226.656 334.054 228.073 C 333.48 229.649 332.521 230.337 331.017 230.352 C 330.117 230.376 329.27 229.935 328.775 229.185 C 328.128 228.314 327.777 227.255 327.773 226.172 C 327.751 224.407 327.76 222.648 327.773 220.887 C 327.781 219.899 328.072 218.936 328.611 218.106 C 329.742 216.303 332.353 216.253 333.553 218.012 C 334.068 218.738 334.353 219.6 334.373 220.489 C 334.4 221.562 334.38 222.638 334.38 223.712 Z" style="fill: rgb(246, 178, 27);"/>
  <path class="cls-20" d="M 327.766 170.02 C 327.766 169.24 327.766 168.455 327.766 167.674 C 327.788 166.888 327.975 166.116 328.315 165.41 C 328.844 164.231 329.697 163.563 331.023 163.515 C 332.349 163.466 333.254 164.199 333.834 165.288 C 334.147 165.894 334.32 166.563 334.345 167.247 C 334.413 169.29 334.389 171.351 334.365 173.403 C 334.345 174.292 334.054 175.154 333.528 175.871 C 332.338 177.652 329.697 177.58 328.611 175.736 C 328.083 174.904 327.792 173.942 327.773 172.957 C 327.757 171.978 327.766 170.999 327.766 170.02 Z" style="fill: rgb(246, 178, 27);"/>
  <path class="cls-21" d="M 350.923 170.324 C 350.923 169.252 350.877 168.172 350.94 167.102 C 350.978 166.517 351.119 165.943 351.36 165.41 C 351.864 164.196 353.083 163.435 354.396 163.517 C 355.725 163.605 356.526 164.403 357.024 165.56 C 357.213 166.01 357.338 166.486 357.396 166.97 C 357.669 169.205 357.673 171.465 357.407 173.7 C 357.332 174.686 356.912 175.611 356.221 176.32 C 355.155 177.434 353.384 177.472 352.269 176.403 C 351.525 175.748 351.057 174.835 350.962 173.847 C 350.936 173.555 350.892 173.262 350.891 172.973 C 350.891 172.089 350.891 171.213 350.891 170.331 L 350.923 170.324 Z" style="fill: rgb(246, 179, 28);"/>
  <path class="cls-21" d="M 350.809 249.891 C 350.86 248.812 350.891 247.728 350.967 246.649 C 351.052 245.555 351.611 244.552 352.5 243.902 C 353.569 243.126 355.031 243.181 356.037 244.039 C 356.899 244.804 357.283 245.787 357.398 246.898 C 357.618 249.054 357.618 251.224 357.398 253.379 C 357.332 254.369 356.943 255.309 356.292 256.057 C 355.256 257.206 353.486 257.303 352.331 256.272 C 351.496 255.559 350.991 254.53 350.946 253.43 C 350.888 252.255 350.946 251.073 350.946 249.891 L 350.809 249.891 Z" style="fill: rgb(246, 179, 28);"/>
  <path class="cls-20" d="M 380.742 276.834 C 380.652 278.071 380.636 279.352 380.452 280.606 C 380.235 282.097 379.106 283.309 377.922 283.531 C 376.6 283.789 375.431 283.275 374.683 282.044 C 374.368 281.551 374.159 280.999 374.067 280.423 C 373.782 277.988 373.782 275.531 374.067 273.097 C 374.238 271.637 375.012 270.513 376.505 270.101 C 378.358 269.589 380.134 270.867 380.48 272.994 C 380.663 274.246 380.647 275.523 380.742 276.834 Z" style="fill: rgb(246, 178, 27);"/>
  <path class="cls-22" d="M 380.718 196.885 C 380.659 198.063 380.608 199.141 380.553 200.206 C 380.497 201.095 380.157 201.942 379.58 202.621 C 378.505 204.033 376.422 204.154 375.189 202.877 C 374.477 202.184 374.05 201.254 373.985 200.261 C 373.805 198.012 373.812 195.75 374 193.503 C 374.016 193.307 374.044 193.112 374.086 192.921 C 374.484 191.224 375.833 190.086 377.391 190.133 C 378.804 190.172 380.055 191.292 380.429 192.87 C 380.493 193.155 380.535 193.448 380.553 193.742 C 380.617 194.829 380.667 195.906 380.718 196.885 Z" style="fill: rgb(246, 179, 27);"/>
  <path class="cls-21" d="M 380.711 223.544 C 380.664 224.528 380.61 225.607 380.563 226.684 C 380.532 227.575 380.226 228.433 379.685 229.139 C 378.466 230.769 376.185 230.781 374.887 229.181 C 374.313 228.499 373.992 227.639 373.979 226.746 C 373.958 224.59 373.979 222.433 373.979 220.275 C 373.984 220.177 373.993 220.08 374.015 219.982 C 374.328 218.026 375.567 216.779 377.238 216.741 C 378.909 216.704 380.179 217.973 380.497 219.923 C 380.543 220.216 380.573 220.508 380.586 220.804 C 380.629 221.686 380.664 222.568 380.711 223.544 Z" style="fill: rgb(246, 179, 28);"/>
  <path class="cls-22" d="M 380.742 169.95 C 380.671 171.366 380.621 172.447 380.57 173.527 C 380.519 174.515 380.128 175.458 379.463 176.192 C 378.359 177.428 376.449 177.492 375.265 176.33 C 374.538 175.657 374.086 174.733 374.003 173.743 C 373.802 171.393 373.813 169.03 374.034 166.681 C 374.051 166.486 374.085 166.293 374.137 166.103 C 374.57 164.573 375.873 163.52 377.327 163.517 C 378.849 163.565 380.13 164.674 380.396 166.176 C 380.638 167.528 380.649 168.913 380.742 169.95 Z" style="fill: rgb(246, 179, 27);"/>
  <path class="cls-23" d="M 274.047 306.749 C 271.538 304.483 270.941 301.452 270.959 298.205 C 270.959 296.926 270.959 295.649 270.926 294.371 C 270.926 293.583 270.909 292.791 270.831 292.011 C 270.749 291.022 270.405 290.074 269.836 289.26 C 269.193 288.351 268.169 288.319 267.165 288.316 C 266.4 288.316 266.145 287.836 266.145 287.172 C 266.145 285.99 266.111 284.807 266.145 283.625 C 266.177 282.642 266.45 282.322 267.35 282.334 C 268.628 282.351 269.929 282.35 271.182 282.589 C 273.84 283.118 275.525 284.804 276.23 287.41 C 276.757 289.409 277.014 291.472 276.995 293.542 C 276.995 294.921 276.94 296.306 277.023 297.682 C 277.113 298.756 277.276 299.828 277.507 300.883 C 277.839 302.571 278.801 303.839 280.487 304.205 C 281.699 304.462 281.817 305.158 281.81 306.102 C 281.787 306.399 281.787 306.694 281.81 306.991 C 282.044 308.572 281.578 309.544 279.839 309.922 C 278.639 310.178 277.96 311.243 277.526 312.427 C 277.107 313.639 276.893 314.912 276.893 316.195 C 276.862 317.872 276.855 319.547 276.878 321.22 C 276.871 322.995 276.663 324.766 276.251 326.492 C 275.692 329.031 274.052 330.642 271.602 331.375 C 270.069 331.832 268.486 331.77 266.906 331.62 C 266.497 331.597 266.177 331.261 266.177 330.852 C 266.137 329.772 266.099 328.686 266.117 327.606 C 266.142 326.073 266.152 325.969 267.695 325.753 C 269.187 325.542 269.952 324.731 270.343 323.369 C 270.719 322.039 270.909 320.665 270.909 319.281 C 270.924 317.607 270.937 315.931 270.951 314.256 C 270.971 311.592 271.632 309.192 273.761 307.374 C 273.889 307.26 273.92 307.035 274.047 306.749 Z" style="fill: rgb(251, 250, 250);"/>
  <path class="cls-23" d="M 229.016 306.947 C 231.615 308.787 232.253 311.256 232.471 313.869 C 232.612 315.535 232.574 317.218 232.601 318.894 C 232.594 320.268 232.746 321.641 233.054 322.98 C 233.45 324.586 234.232 325.595 236.018 325.756 C 237.272 325.867 237.342 326.07 237.408 327.184 C 237.426 327.478 237.408 327.773 237.408 328.07 C 237.352 331.962 237.919 331.813 233.76 331.645 C 229.117 331.452 227.481 328.683 226.823 325.258 C 226.62 324.205 226.647 323.101 226.623 322.016 C 226.589 320.244 226.623 318.469 226.589 316.693 C 226.605 315.805 226.549 314.919 226.416 314.042 C 226.031 311.891 225.189 310.047 222.746 309.585 C 222.033 309.445 221.754 309.032 221.723 308.368 C 221.74 307.876 221.729 307.382 221.694 306.89 C 221.47 305.309 221.927 304.291 223.644 303.905 C 224.768 303.651 225.414 302.713 225.781 301.627 C 226.215 300.421 226.452 299.153 226.48 297.87 C 226.495 295.405 226.584 292.942 226.613 290.478 C 226.66 289.095 226.964 287.734 227.514 286.465 C 228.352 284.382 229.92 283.143 232.054 282.593 C 232.629 282.459 233.217 282.378 233.808 282.357 C 237.82 282.119 237.362 282.147 237.4 285.677 C 237.4 285.974 237.4 286.268 237.4 286.563 C 237.349 288.077 237.353 288.178 235.757 288.285 C 234.224 288.389 233.459 289.178 233.045 290.547 C 232.754 291.488 232.601 292.466 232.588 293.452 C 232.563 295.24 232.566 297.007 232.456 298.776 C 232.281 301.791 231.837 304.717 229.016 306.947 Z" style="fill: rgb(251, 250, 250);"/>
</svg>