<svg xmlns="http://www.w3.org/2000/svg" version="1.1" xmlns:xlink="http://www.w3.org/1999/xlink" xmlns:svgjs="http://svgjs.com/svgjs" width="512" height="512" x="0" y="0" viewBox="0 0 511 511" style="enable-background:new 0 0 512 512" xml:space="preserve" class=""><g><path fill="#3b69af" d="m495.784 169.071-23.553-48.697C438.477 66.18 384.951 25.578 321.742 8.655l-38.268-7.152A257.955 257.955 0 0 0 253.288.01l-16.003 8.398-18.426-5.78C142.615 13.623 97.022 55.364 96.878 55.445c0 0-2.513 3.137-2.983 5.222-3.818 16.948-7.385 39.663-7.385 56.238 0 140.833 118.763 254.972 259.596 254.972 54.231 0 114.568-25.992 154.949-57.243.903-.699 3.769-5.396 3.769-5.396.178-1.087 5.8-23.477 5.8-54.239 0-30.151-5.233-59.08-14.84-85.928z" data-original="#3b69af"></path><path fill="#26457d" d="M346.083 364.679c-140.833 0-255-114.167-255-255 0-18.615 2.008-36.753 5.795-54.234a256.115 256.115 0 0 0-8.088 6.719l-6.73 13.29-15.18 8.101C25.721 128.838.624 188.989.624 255c0 140.833 114.167 255 255 255 121.17 0 224.116-84.98 249.2-200.761-43.559 34.695-98.724 55.44-158.741 55.44z" data-original="#26457d"></path><path fill="#26457d" d="m144.68 173.115 8.648 18.647a4.808 4.808 0 0 0 3.787 2.751l20.407 2.462c4.065.49 5.697 5.512 2.696 8.298l-15.062 13.987a4.807 4.807 0 0 0-1.446 4.451l3.964 20.169c.79 4.017-3.482 7.121-7.059 5.129l-17.957-10.003a4.812 4.812 0 0 0-4.681 0l-17.957 10.003c-3.577 1.992-7.849-1.111-7.059-5.129l3.964-20.169a4.81 4.81 0 0 0-1.446-4.451l-15.062-13.987c-3-2.786-1.369-7.808 2.696-8.298l20.407-2.462a4.81 4.81 0 0 0 3.787-2.751l8.648-18.647c1.722-3.715 7.003-3.715 8.725 0zM365.489 249.788l9.666 20.842a7.84 7.84 0 0 0 6.173 4.485l22.809 2.752c6.627.8 9.287 8.986 4.396 13.528l-16.835 15.633a7.838 7.838 0 0 0-2.358 7.257l4.431 22.543c1.287 6.549-5.677 11.609-11.508 8.361l-20.07-11.18a7.84 7.84 0 0 0-7.63 0l-20.07 11.18c-5.831 3.248-12.795-1.811-11.508-8.361l4.431-22.543a7.838 7.838 0 0 0-2.358-7.257l-16.835-15.633c-4.891-4.542-2.231-12.728 4.396-13.528l22.809-2.752a7.84 7.84 0 0 0 6.173-4.485l9.666-20.842c2.806-6.055 11.414-6.055 14.222 0zM469.194 226.248l6.965 15.019a5.648 5.648 0 0 0 4.448 3.232l16.436 1.983c4.775.576 6.692 6.476 3.167 9.748l-12.132 11.265a5.649 5.649 0 0 0-1.699 5.229l3.193 16.245c.928 4.72-4.091 8.366-8.292 6.025l-14.463-8.057a5.649 5.649 0 0 0-5.498 0l-14.463 8.057c-4.202 2.341-9.22-1.305-8.292-6.025l3.193-16.245a5.648 5.648 0 0 0-1.699-5.229l-12.132-11.265c-3.525-3.273-1.608-9.172 3.167-9.748l16.436-1.983a5.648 5.648 0 0 0 4.448-3.232l6.965-15.019c2.025-4.364 8.228-4.364 10.252 0zM313.697 6.66l-29.371 18.83c-19.572 49.098-67.591 83.889-123.586 83.889-29.523 0-56.825-9.675-78.912-26.016l-14.932.207a255.675 255.675 0 0 0-13.148 15.67c28.647 24.987 66.083 40.139 106.993 40.139 72.766 0 134.541-47.938 155.419-113.889l5.577-16.817a255.168 255.168 0 0 0-8.04-2.013z" data-original="#26457d"></path><path fill="#26457d" d="m486.659 146.974-15.125-.332c-17.701 6.498-36.813 10.047-56.739 10.047-79.427 0-145.93-56.367-161.624-131.199L223.1 2.058c-1.423.182-2.836.376-4.24.578l3.757 22.854c16.109 91.477 96.151 161.199 192.177 161.199 28.872 0 56.295-6.31 80.974-17.613a252.812 252.812 0 0 0-9.109-22.102z" data-original="#26457d"></path><path fill="#93d8e4" d="M82.005 115.12c-1.801 0-3.559-.087-5.276-.241v82.099h12v-82.287a54.205 54.205 0 0 1-6.724.429z" data-original="#93d8e4"></path><path fill="#70c6da" d="M76.728 116.011a162.42 162.42 0 0 0 12 6.571V88.133a133.738 133.738 0 0 1-12-8.747zM76.728 196.172h12v19.418h-12z" data-original="#70c6da"></path><path fill="#ffa50a" d="M227.963 117.069h12v72.991h-12z" data-original="#ffa50a"></path><path fill="#fa870a" d="M227.963 124.86a162.247 162.247 0 0 0 12-6.072V83.136a133.449 133.449 0 0 1-12 7.967z" data-original="#fa870a"></path><path fill="#ffa50a" d="M134.317 135.895h12v57.168h-12z" data-original="#ffa50a"></path><path fill="#fa870a" d="M134.317 137.235c3.954.647 7.957 1.148 12 1.504v-30.154c-4.057-.44-8.06-1.059-12-1.857z" data-original="#fa870a"></path><path fill="#ffa50a" d="M458.069 177.179h12v53.505h-12z" data-original="#ffa50a"></path><path fill="#fa870a" d="M458.069 181.849c4.049-.92 8.05-1.971 12-3.139v-31.545a163.684 163.684 0 0 1-12 3.77z" data-original="#fa870a"></path><path fill="#ffa50a" d="M352.377 174.867h12v128.098h-12z" data-original="#ffa50a"></path><path fill="#fa870a" d="M352.377 176.441a193.238 193.238 0 0 0 12 3.633v-31.26a163.384 163.384 0 0 1-12-4.381z" data-original="#fa870a"></path><path fill="#ffe65a" d="M283.473 1.52c-20.061 47.98-67.442 81.802-122.602 81.855.009.222.018.444.018.667v29.334C230.93 113.313 290.758 68.835 313.7 6.649a253.986 253.986 0 0 0-30.227-5.129z" data-original="#ffe65a"></path><path fill="#ffd23c" d="M160.741 83.377c-26.488 0-51.184-7.793-71.935-21.195a256.713 256.713 0 0 0-21.918 21.38c26.552 18.771 58.935 29.815 93.853 29.815 8.284 0 15-6.716 15-15s-6.716-15-15-15z" data-original="#ffd23c"></path><path fill="#ffe65a" d="M472.216 120.384c-17.892 6.658-37.238 10.304-57.421 10.304-79.238 0-145.609-56.102-161.506-130.667a257.268 257.268 0 0 0-30.188 2.041c17.145 90.207 96.572 158.626 191.694 158.626 25.365 0 49.613-4.868 71.864-13.714a254.591 254.591 0 0 0-14.443-26.59z" data-original="#ffe65a"></path><path fill="#ffd23c" d="M223.101 2.061c17.145 90.207 96.572 158.626 191.694 158.626 8.284 0 15-6.716 15-15s-6.716-15-15-15c-79.238 0-145.609-56.102-161.506-130.667-10.512.095-20.584.82-30.188 2.041zM177.521 183.974l-20.407-2.462a4.811 4.811 0 0 1-3.787-2.751l-8.648-18.647c-1.723-3.714-7.003-3.714-8.725 0l-8.648 18.647c-.148.318-.334.61-.542.883v32.26h37.178l-.235-1.194a4.81 4.81 0 0 1 1.446-4.451l15.062-13.987c3.003-2.785 1.371-7.807-2.694-8.298z" data-original="#ffd23c"></path><path fill="#ffc305" d="M163.829 211.323c-18.837-.46-33.258-14.291-36.943-31.846a4.803 4.803 0 0 1-3.366 2.035l-20.407 2.462c-4.065.49-5.697 5.512-2.696 8.298l15.062 13.987a4.807 4.807 0 0 1 1.446 4.451l-3.964 20.169c-.79 4.017 3.482 7.121 7.059 5.129l17.957-10.003a4.812 4.812 0 0 1 4.681 0l17.957 10.003c3.577 1.992 7.849-1.111 7.059-5.129z" data-original="#ffc305"></path><path fill="#ffe65a" d="m389.624 302.73-.284-1.446a7.838 7.838 0 0 1 2.358-7.257l16.835-15.633c4.891-4.542 2.231-12.729-4.396-13.528l-22.809-2.752a7.84 7.84 0 0 1-6.173-4.485l-9.666-20.842c-2.808-6.055-11.416-6.055-14.224 0l-9.666 20.842a7.833 7.833 0 0 1-3.459 3.63v41.471z" data-original="#ffe65a"></path><path fill="#ffc305" d="M389.502 302.11c-13.918-1.27-26.336-7.605-36.645-17.068-7.074-6.494-11.691-14.923-14.383-23.974a7.815 7.815 0 0 1-3.047 1.046l-22.809 2.752c-6.627.799-9.287 8.986-4.396 13.528l16.835 15.633a7.838 7.838 0 0 1 2.358 7.257l-4.431 22.543c-1.287 6.549 5.677 11.609 11.508 8.361l20.07-11.18a7.84 7.84 0 0 1 7.63 0l20.07 11.18c5.831 3.248 12.795-1.811 11.508-8.361z" data-original="#ffc305"></path><path fill="#ffd23c" d="m486.459 260.125-.079-.401a5.648 5.648 0 0 1 1.699-5.229l12.132-11.265c3.525-3.273 1.608-9.172-3.167-9.748l-16.436-1.983a5.648 5.648 0 0 1-4.448-3.232l-6.965-15.019c-2.024-4.363-8.227-4.363-10.25 0l-6.965 15.019a5.632 5.632 0 0 1-1.544 1.978v29.88z" data-original="#ffd23c"></path><path fill="#ffc305" d="M486.38 259.724c-.014-.072-.017-.143-.028-.215-17.565-.941-31.098-13.573-35.33-29.822a5.635 5.635 0 0 1-3.492 1.811l-16.436 1.983c-4.775.576-6.692 6.476-3.167 9.748l12.132 11.265a5.649 5.649 0 0 1 1.699 5.229l-3.193 16.245c-.928 4.72 4.091 8.366 8.292 6.025l14.463-8.057a5.649 5.649 0 0 1 5.498 0l14.463 8.057c4.202 2.341 9.22-1.305 8.292-6.025z" data-original="#ffc305"></path><path fill="#ffd23c" d="M338.006 375c-56.001-.98-101.648-46.936-102.271-102.942-.497-44.673 27.142-82.941 66.292-98.217 3.718-1.451 2.742-7.001-1.248-7.085a98.824 98.824 0 0 0-1.091-.018c-68.079-.842-124.587 54.224-125.427 122.302-.853 69.132 54.931 125.441 123.867 125.441 39.515 0 74.704-18.505 97.384-47.32 2.471-3.14-1.223-7.389-4.707-5.432-15.563 8.746-33.6 13.608-52.799 13.271z" data-original="#ffd23c"></path><path fill="#005ece" d="M338.006 391.001c-56.001-.98-101.648-46.936-102.271-102.942-.497-44.673 27.142-82.941 66.292-98.217 3.718-1.451 2.742-7.001-1.248-7.085a98.824 98.824 0 0 0-1.091-.018c-68.079-.842-124.587 54.224-125.427 122.302-.853 69.132 54.931 125.441 123.867 125.441 39.515 0 74.704-18.505 97.384-47.32 2.471-3.14-1.223-7.389-4.707-5.432-15.563 8.746-33.6 13.608-52.799 13.271z" data-original="#005ece"></path><path fill="#ffd23c" d="M338.006 375c-56.001-.98-101.648-46.936-102.271-102.942-.497-44.673 27.142-82.941 66.292-98.217 3.718-1.451 2.742-7.001-1.248-7.085a98.824 98.824 0 0 0-1.091-.018c-68.079-.842-124.587 54.224-125.427 122.302-.853 69.132 54.931 125.441 123.867 125.441 39.515 0 74.704-18.505 97.384-47.32 2.471-3.14-1.223-7.389-4.707-5.432-15.563 8.746-33.6 13.608-52.799 13.271z" data-original="#ffd23c"></path><path fill="#ffc305" d="M329.004 401.002c-68.936 0-124.72-56.309-123.867-125.441.544-44.088 24.441-82.711 59.702-104.234-51.503 14.501-89.887 61.699-90.578 117.715-.853 69.132 54.931 125.441 123.867 125.441 23.638 0 45.724-6.627 64.514-18.116a123.932 123.932 0 0 1-33.638 4.635z" data-original="#ffc305"></path><circle cx="82.614" cy="308.673" r="72.96" fill="#70c6da" data-original="#70c6da"></circle><path fill="#63afcb" d="M125.617 360.495c-40.294 0-72.96-32.665-72.96-72.96a72.773 72.773 0 0 1 3.209-21.44c3.407-11.073 14.121-17.87 25.685-17.175.352.021.706.032 1.063.032 7.506 0 13.89-4.733 16.378-11.37a73.106 73.106 0 0 0-16.378-1.869c-5.585 0-11.146.668-16.378 1.869a.07.07 0 0 1 .005.013c-32.909 7.548-57.336 37.321-56.57 72.695.835 38.568 32.126 70.144 70.685 71.309 21.204.64 40.444-7.777 54.16-21.663a73.602 73.602 0 0 1-8.899.559z" data-original="#63afcb"></path><path fill="#93d8e4" d="M96.097 348.597h59.393v136.402H96.097z" data-original="#93d8e4"></path><path fill="#7ad0df" d="M9.738 310.49H155.49v39.218H9.738z" data-original="#7ad0df"></path><path fill="#7ad0df" d="M9.738 310.49h59.771v174.508H9.738z" data-original="#7ad0df"></path><path fill="#93d8e4" d="M149.747 308.673H41.775v30.439h107.973c8.406 0 15.22-6.814 15.22-15.22s-6.815-15.219-15.221-15.219z" data-original="#93d8e4"></path><path fill="#7ad0df" d="M43.17 308.673H16.14c-8.195 0-15.247 6.298-15.632 14.484-.412 8.74 6.553 15.955 15.202 15.955h27.46c8.406 0 15.22-6.814 15.22-15.22 0-8.405-6.814-15.219-15.22-15.219zM149.633 480.561H41.555V511h108.078c8.406 0 15.22-6.814 15.22-15.22-.001-8.405-6.815-15.219-15.22-15.219z" data-original="#7ad0df"></path><path fill="#70c6da" d="M43.056 480.561h-27.03c-8.195 0-15.247 6.298-15.632 14.484C-.019 503.785 6.946 511 15.595 511h27.46c8.406 0 15.22-6.814 15.22-15.22 0-8.405-6.814-15.219-15.219-15.219z" data-original="#70c6da"></path><path fill="#7ad0df" d="M82.729 482.65c-34.691 0-62.813-28.122-62.813-62.813 0-34.69 28.122-62.813 62.813-62.813 34.69 0 62.813 28.122 62.813 62.813-.001 34.691-28.123 62.813-62.813 62.813z" data-original="#7ad0df"></path><path fill="#70c6da" d="M82.729 347.024v125.625c34.69 0 62.812-28.122 62.812-62.813 0-34.69-28.122-62.812-62.812-62.812z" data-original="#70c6da"></path><path fill="#63afcb" d="M82.729 347.024c-34.69 0-62.813 28.122-62.813 62.813 0 34.69 28.122 62.813 62.813 62.813z" data-original="#63afcb"></path><path fill="#ffa50a" d="M82.729 359.28v101.113c27.922 0 50.556-22.635 50.556-50.556 0-27.922-22.635-50.557-50.556-50.557z" data-original="#ffa50a"></path><path fill="#fa870a" d="M82.729 359.28c-27.922 0-50.556 22.635-50.556 50.556 0 27.922 22.635 50.556 50.556 50.556z" data-original="#fa870a"></path><circle cx="82.614" cy="223.448" r="17.505" fill="#7ad0df" data-original="#7ad0df"></circle><path fill="#ffd23c" d="M82.622 363.346c9.372 0 5.425 37.095 5.425 37.095s30.151-21.966 34.838-13.849c4.686 8.117-29.413 23.246-29.413 23.246s34.099 15.129 29.413 23.246-34.838-13.849-34.838-13.849 3.947 37.095-5.425 37.095-5.425-37.095-5.425-37.095-30.151 21.966-34.838 13.849 29.413-23.246 29.413-23.246-34.099-15.129-29.413-23.246 34.838 13.849 34.838 13.849-3.947-37.095 5.425-37.095z" data-original="#ffd23c"></path><path fill="#ffc305" d="M82.729 363.359c-.037-.001-.069-.013-.106-.013-9.372 0-5.425 37.095-5.425 37.095s-30.151-21.966-34.838-13.849c-4.686 8.117 29.413 23.246 29.413 23.246s-34.099 15.129-29.413 23.246 34.838-13.849 34.838-13.849-3.947 37.095 5.425 37.095c.037 0 .07-.012.106-.013z" data-original="#ffc305"></path></g></svg>